<svg
  width="800"
  height="800"
  viewBox="1700 -840 1680 1680"
  xmlns="http://www.w3.org/2000/svg"
  role="img"
  aria-labelledby="logo-title logo-desc"
>
  <title id="logo-title">Revolving Arrows</title>
  <desc id="logo-desc">Four arrows each leading into the next in an endless cycle.</desc>
  <metadata>
    <rdf:RDF xmlns:rdf="http://www.w3.org/1999/02/22-rdf-syntax-ns#" xmlns:dc="http://purl.org/dc/elements/1.1/">
      <rdf:Description rdf:about="">
        <dc:title>Revolving Arrows</dc:title>
        <dc:creator>Allen Rose</dc:creator>
        <dc:rights>Copyright © 2026 EverGray Tech. All rights reserved.</dc:rights>
        <dc:date>2026</dc:date>
        <dc:format>image/svg+xml</dc:format>
      </rdf:Description>
    </rdf:RDF>
  </metadata>

  <defs>
    <path
      id="upper_left"
      d="M 1899.206 -412.1904 L 1899.987 -413.4031 C 2022.507 -602.543 2226.557 -734.0898 2462.151 -758.0576 L 2463.799 -758.2202 L 2463.799 -450.8569 L 2461.942 -450.5435 C 2311.314 -424.5723 2185.773 -324.7554 2124.013 -189.7915 L 2123.263 -188.1331 L 2235.197 -76.198 L 1777.997 -76.198 L 1777.998 -533.3979 L 1899.206 -412.1904 Z"
    />
    <path
      id="lower_left"
      d="M 2127.809 640.7933 L 2126.596 640.0115 C 1937.456 517.4915 1805.909 313.4418 1781.941 77.84799 L 1781.779 76.19965 L 2089.142 76.19977 L 2089.456 78.05728 C 2115.427 228.6846 2215.244 354.2257 2350.208 415.9853 L 2351.866 416.7362 L 2463.801 304.8015 L 2463.801 762.0013 L 2006.601 762.0013 L 2127.809 640.7933 Z"
    />
    <path
      id="lower_right"
      d="M 3180.792 412.1902 L 3180.011 413.4028 C 3057.49 602.5427 2853.441 734.0896 2617.847 758.0574 L 2616.198 758.22 L 2616.199 450.8567 L 2618.056 450.5432 C 2768.684 424.572 2894.225 324.7551 2955.984 189.7913 L 2956.735 188.1328 L 2844.801 76.19775 L 3302 76.19751 L 3302 533.3977 L 3180.792 412.1902 Z"
    />
    <path
      id="upper_right"
      d="M 2952.189 -640.7931 L 2953.402 -640.0113 C 3142.542 -517.4912 3274.089 -313.4416 3298.057 -77.84781 L 3298.219 -76.19946 L 2990.856 -76.19962 L 2990.542 -78.05713 C 2964.571 -228.6844 2864.754 -354.2256 2729.791 -415.9851 L 2728.132 -416.7361 L 2616.197 -304.8014 L 2616.197 -762.0012 L 3073.397 -762.0012 L 2952.189 -640.7931 Z"
    />
  </defs>

  <g id="arrows">
    <g>
      <use href="#upper_left" />
    </g>
    <g>
      <use href="#lower_left" />
    </g>
    <g>
      <use href="#lower_right" />
    </g>
    <g>
      <use href="#upper_right" />
    </g>
  </g>
</svg>
